# xmcd
#
# Track frame offsets:
#	150
#	13437
#	24097
#	40867
#	53822
#	74940
#	99020
#	109600
#	133720
#	151970
#	178735
#	190897
#	202002
#	214605
#
# Disc length: 3084 seconds
#
# Revision: 0
# Processed by: cddbd v1.4PL0 Copyright (c) Steve Scherf et al.
# Submitted via: dBpowerAMP V4.0
#
DISCID=c30c0a0e
DTITLE=Big Daddy G - 4 Blues
DYEAR=1998
DGENRE=Blues
TTITLE0=Lollipop Mama
TTITLE1=I Want To Be Loved
TTITLE2=Woke Up This Morning
TTITLE3=Heads Up
TTITLE4=T-Bone Shuffle
TTITLE5=Five Long Years
TTITLE6=Teach Me How To Love You
TTITLE7=Crosseyed Cat
TTITLE8=Frosty
TTITLE9=If This Is Love
TTITLE10=Walkin' To My Baby
TTITLE11=My Babe
TTITLE12=Made In The Shade
TTITLE13=She's Into Something
EXTD=
EXTT0=
EXTT1=
EXTT2=
EXTT3=
EXTT4=
EXTT5=
EXTT6=
EXTT7=
EXTT8=
EXTT9=
EXTT10=
EXTT11=
EXTT12=
EXTT13=
PLAYORDER=
